<?xml version="1.0" standalone="no"?>
<!DOCTYPE svg PUBLIC "-//W3C//DTD SVG 20010904//EN"
 "http://www.w3.org/TR/2001/REC-SVG-20010904/DTD/svg10.dtd">
<svg version="1.0" xmlns="http://www.w3.org/2000/svg"
 width="1280.000000pt" height="800.000000pt" viewBox="0 0 1280.000000 800.000000"
 preserveAspectRatio="xMidYMid meet">

<g transform="translate(0.000000,800.000000) scale(0.100000,-0.100000)"
fill="#000000" stroke="none">
<path d="M6590 6545 c-237 -40 -601 -168 -991 -350 -88 -41 -196 -94 -240
-120 l-82 -45 -136 54 c-391 157 -755 256 -947 259 -96 2 -127 -9 -167 -57
-54 -65 -110 -219 -144 -399 -25 -135 -25 -501 0 -609 35 -149 103 -245 188
-263 17 -4 32 -12 34 -18 1 -7 8 -31 14 -55 7 -24 27 -57 47 -77 l34 -35 60
43 c43 30 58 47 55 60 -3 15 1 18 16 14 14 -4 80 34 222 127 194 127 504 318
540 332 13 5 17 1 17 -16 0 -12 9 -67 21 -123 32 -161 99 -300 163 -342 33
-22 192 -60 313 -76 100 -13 431 -18 628 -9 l110 5 -1 -130 c-1 -117 -4 -139
-31 -220 -17 -49 -42 -116 -57 -148 l-26 -58 32 18 c18 10 74 59 124 108 106
105 187 224 265 390 l54 115 64 20 c220 69 308 168 358 401 25 116 25 419 -1
573 -22 138 -93 370 -140 464 -45 90 -108 156 -161 171 -51 14 -139 12 -235
-4z"/>
<path d="M6268 4055 c-190 -52 -315 -249 -279 -441 38 -206 201 -334 410 -322
141 8 269 94 327 221 26 56 29 72 29 167 0 93 -3 112 -26 161 -82 174 -278
265 -461 214z"/>
<path d="M6030 3189 c-185 -8 -266 -27 -338 -79 -84 -61 -107 -120 -117 -310
-6 -108 18 -936 27 -945 2 -3 56 -8 120 -11 l116 -7 6 74 c3 41 10 231 16 424
9 298 13 352 27 367 21 23 55 23 76 0 15 -17 17 -62 17 -435 l0 -417 58 0
c100 0 594 40 689 55 l32 6 3 390 c3 373 4 391 22 405 27 19 52 18 74 -4 17
-17 20 -45 26 -268 3 -137 9 -308 12 -380 l7 -130 119 17 c66 10 122 20 125
22 11 12 30 788 21 892 -15 183 -67 256 -218 305 -104 35 -511 48 -920 29z"/>
</g>
</svg>
